<?xml version="1.0" standalone="no"?>
<!DOCTYPE svg PUBLIC "-//W3C//DTD SVG 20010904//EN"
 "http://www.w3.org/TR/2001/REC-SVG-20010904/DTD/svg10.dtd">
<svg version="1.0" xmlns="http://www.w3.org/2000/svg"
 width="180.000000pt" height="180.000000pt" viewBox="0 0 180.000000 180.000000"
 preserveAspectRatio="xMidYMid meet">

<g transform="translate(0.000000,180.000000) scale(0.100000,-0.100000)"
fill="#000000" stroke="none">
<path d="M550 885 l0 -535 355 0 355 0 0 535 0 535 -355 0 -355 0 0 -535z
m690 0 l0 -515 -335 0 -335 0 0 515 0 515 335 0 335 0 0 -515z"/>
<path d="M580 885 l0 -495 325 0 325 0 0 495 0 495 -325 0 -325 0 0 -495z
m607 338 c-4 -65 -13 -140 -21 -168 l-15 -50 6 51 c8 77 -17 153 -66 197 -49
44 -66 54 -133 71 -53 15 -52 15 91 15 l144 1 -6 -117z m-232 -9 c48 -25 75
-72 75 -134 0 -99 -68 -150 -212 -158 l-88 -5 0 163 0 162 93 -4 c68 -2 102
-8 132 -24z m153 -397 c-23 -98 -45 -177 -49 -177 -4 0 -42 41 -84 92 -85 101
-85 94 2 117 55 15 123 67 148 113 11 20 21 36 22 34 2 -2 -16 -82 -39 -179z
m-215 -166 c100 -129 127 -170 125 -190 l-3 -26 -142 -3 -143 -3 0 196 c0 181
1 196 17 193 10 -2 75 -77 146 -167z"/>
</g>
</svg>
